<svg xmlns="http://www.w3.org/2000/svg" viewBox="0 0 36 36">
	<path fill="currentColor" d="M30 290v-40c0 -33.1299 27.0498 -60 60.4199 -60h-0.839844c33.3701 0 60.4199 26.8701 60.4199 60v40c0 33.1299 -27.0498 60 -60.4199 60h0.839844c-33.3701 0 -60.4199 -26.8701 -60.4199 -60zM30 110v-40c0 -33.1299 27.0498 -60 60.4199 -60h-0.839844 c33.3701 0 60.4199 26.8701 60.4199 60v40c0 33.1299 -27.0498 60 -60.4199 60h0.839844c-33.3701 0 -60.4199 -26.8701 -60.4199 -60zM60.21 290c0 16.5703 13.5303 30 30.21 30h-0.839844c16.6797 0 30.21 -13.4297 30.21 -30v-40c0 -16.5703 -13.5303 -30 -30.21 -30 h0.839844c-16.6797 0 -30.21 13.4297 -30.21 30v40zM60.21 110c0 16.5703 13.5303 30 30.21 30h-0.839844c16.6797 0 30.21 -13.4297 30.21 -30v-40c0 -16.5703 -13.5303 -30 -30.21 -30h0.839844c-16.6797 0 -30.21 13.4297 -30.21 30v40zM210 340 c0 -33.1299 27.0498 -60 60.4199 -60h-0.839844c33.3701 0 60.4199 26.8701 60.4199 60v20h-30.21v-20c0 -16.5703 -13.5303 -30 -30.21 -30h0.839844c-16.6797 0 -30.21 13.4297 -30.21 30v20h-30.21v-20zM210 200v-40c0 -33.1299 27.0498 -60 60.4199 -60h-0.839844	c33.3701 0 60.4199 26.8701 60.4199 60v40c0 33.1299 -27.0498 60 -60.4199 60h0.839844c-33.3701 0 -60.4199 -26.8701 -60.4199 -60zM210 20v-20h30.21v20c0 16.5703 13.5303 30 30.21 30h-0.839844c16.6797 0 30.21 -13.4297 30.21 -30v-20h30.21v20 c0 33.1299 -27.0498 60 -60.4199 60h0.839844c-33.3701 0 -60.4199 -26.8701 -60.4199 -60zM240.21 200c0 16.5703 13.5303 30 30.21 30h-0.839844c16.6797 0 30.21 -13.4297 30.21 -30v-40c0 -16.5703 -13.5303 -30 -30.21 -30h0.839844 c-16.6797 0 -30.21 13.4297 -30.21 30v40z"/>
	<path fill="currentColor" d="M50 295v-50c0 -20 18 -38 40.5 -34.5v9.5c-16.5 0.5 -29.5 13.5 -29.5 30v40c0 16.5 13 29.5 29.5 30v9.5c-22.5 3.5 -40.5 -14.5 -40.5 -34.5zM50 115v-50c0 -20 18 -38 40.5 -34.5v9.5c-16.5 0.5 -29.5 13.5 -29.5 30v40c0 16.5 13 29.5 29.5 30v9.5 c-22.5 3.5 -40.5 -14.5 -40.5 -34.5zM90.5 329.5c22.5 3.5 40 -14.5 40 -34.5v-50c0 -20 -17.5 -38 -40 -34.5v-20.4932c32.9453 0.488281 59.5 27.1689 59.5 59.9932v40c0 32.8242 -26.5547 59.5049 -59.5 59.9932v-20.4932zM90.5 169.993v-20.4932 c22.5 3.5 40 -14.5 40 -34.5v-50c0 -20 -17.5 -38 -40 -34.5v-20.4932c32.9463 0.488281 59.5 27.168 59.5 59.9932v40c0 32.8252 -26.5537 59.5049 -59.5 59.9932zM230 335c0 -20 18 -38 40.5 -34.5v9.5c-16.5 0.5 -29.5 13.5 -29.5 30v20h-11v-25zM230 205v-50 c0 -20 18 -38 40.5 -34.5v9.5c-16.5 0.5 -29.5 13.5 -29.5 30v40c0 16.5 13 29.5 29.5 30v9.5c-22.5 3.5 -40.5 -14.5 -40.5 -34.5zM230 25v-25h11v20c0 16.5 13 29.5 29.5 30v9.5c-22.5 3.5 -40.5 -14.5 -40.5 -34.5zM270.5 300.5v-20.4932 c32.9453 0.488281 59.5 27.1689 59.5 59.9932v20h-19.5v-25c0 -20 -17.5 -38 -40 -34.5zM270.5 259.993v-20.4932c22.5 3.5 40 -14.5 40 -34.5v-50c0 -20 -17.5 -38 -40 -34.5v-20.4932c32.9453 0.488281 59.5 27.1689 59.5 59.9932v40 c0 32.8242 -26.5547 59.5049 -59.5 59.9932zM270.5 79.9932v-20.4932c22.5 3.5 40 -14.5 40 -34.5v-25h19.5v20c0 32.8242 -26.5547 59.5049 -59.5 59.9932z"/>
	<path fill="currentColor" d="M70 300c0 -11.04 8.95996 -20 20 -20s20 8.95996 20 20v60h-40v-60zM70 240v-120c0 -11.04 8.95996 -20 20 -20s20 8.95996 20 20v120c0 11.04 -8.95996 20 -20 20s-20 -8.95996 -20 -20zM70 60v-60h40v60c0 11.04 -8.95996 20 -20 20s-20 -8.95996 -20 -20zM250 330 v-120c0 -11.04 8.95996 -20 20 -20s20 8.95996 20 20v120c0 11.04 -8.95996 20 -20 20s-20 -8.95996 -20 -20zM250 150v-120c0 -11.04 8.95996 -20 20 -20s20 8.95996 20 20v120c0 11.04 -8.95996 20 -20 20s-20 -8.95996 -20 -20z"/>
	<path fill="currentColor" d="M70 300c0 -11 9 -20 20 -20v80h-20v-60zM70 240v-120c0 -11 9 -20 20 -20v160c-11 0 -20 -9 -20 -20zM70 60v-60h20v80c-11 0 -20 -9 -20 -20zM250 330v-120c0 -11 9 -20 20 -20v160c-11 0 -20 -9 -20 -20zM250 150v-120c0 -11 9 -20 20 -20v160c-11 0 -20 -9 -20 -20z"/>
</svg>
