<svg xmlns="http://www.w3.org/2000/svg" viewBox="0 0 36 36">
	<path fill="#E1E8ED" d="M30e-1 290e-1v-40e-1c0e-1-33.13e-1 27.05e-1-60e-1 60.42e-1-60e-1h-.84e-1c33.37e-1 0e-1 60.42e-1 26.87e-1 60.42e-1 60e-1v40e-1c0e-1 33.13e-1-27.05e-1 60e-1-60.42e-1 60e-1h.84e-1C57.05e-1 350e-1 30e-1 323.13e-1 30e-1 290e-1zm0e-1-180e-1V70e-1c0e-1-33.13e-1 27.05e-1-60e-1 60.42e-1-60e-1h-.84e-1C122.95e-1 10e-1 150e-1 36.87e-1 150e-1 70e-1v40e-1c0e-1 33.13e-1-27.05e-1 60e-1-60.42e-1 60e-1h.84e-1C57.05e-1 170e-1 30e-1 143.13e-1 30e-1 110e-1zm30.21e-1 180e-1c0e-1 16.57e-1 13.53e-1 30e-1 30.21e-1 30e-1h-.84e-1c16.68e-1 0e-1 30.21e-1-13.43e-1 30.21e-1-30e-1v-40e-1c0e-1-16.57e-1-13.53e-1-30e-1-30.21e-1-30e-1h.84e-1c-16.68e-1 0e-1-30.21e-1 13.43e-1-30.21e-1 30e-1v40e-1zm0e-1-180e-1c0e-1 16.57e-1 13.53e-1 30e-1 30.21e-1 30e-1h-.84e-1c16.68e-1 0e-1 30.21e-1-13.43e-1 30.21e-1-30e-1V70e-1c0e-1-16.57e-1-13.53e-1-30e-1-30.21e-1-30e-1h.84e-1c-16.68e-1 0e-1-30.21e-1 13.43e-1-30.21e-1 30e-1v40e-1zM210e-1 340e-1c0e-1-33.13e-1 27.05e-1-60e-1 60.42e-1-60e-1h-.84e-1c33.37e-1 0e-1 60.42e-1 26.87e-1 60.42e-1 60e-1v20e-1h-30.21e-1v-20e-1c0e-1-16.57e-1-13.53e-1-30e-1-30.21e-1-30e-1h.84e-1c-16.68e-1 0e-1-30.21e-1 13.43e-1-30.21e-1 30e-1v20e-1H210e-1v-20e-1zm0e-1-140e-1v-40e-1c0e-1-33.13e-1 27.05e-1-60e-1 60.42e-1-60e-1h-.84e-1c33.37e-1 0e-1 60.42e-1 26.87e-1 60.42e-1 60e-1v40e-1c0e-1 33.13e-1-27.05e-1 60e-1-60.42e-1 60e-1h.84e-1c-33.37e-1 0e-1-60.42e-1-26.87e-1-60.42e-1-60e-1zm0e-1-180e-1V0e-1h30.21e-1v20e-1c0e-1 16.57e-1 13.53e-1 30e-1 30.21e-1 30e-1h-.84e-1c16.68e-1 0e-1 30.21e-1-13.43e-1 30.21e-1-30e-1V0e-1H330e-1v20e-1c0e-1 33.13e-1-27.05e-1 60e-1-60.42e-1 60e-1h.84e-1C237.05e-1 80e-1 210e-1 53.13e-1 210e-1 20e-1zm30.21e-1 180e-1c0e-1 16.57e-1 13.53e-1 30e-1 30.21e-1 30e-1h-.84e-1c16.68e-1 0e-1 30.21e-1-13.43e-1 30.21e-1-30e-1v-40e-1c0e-1-16.57e-1-13.53e-1-30e-1-30.21e-1-30e-1h.84e-1c-16.68e-1 0e-1-30.21e-1 13.43e-1-30.21e-1 30e-1v40e-1z"/>
	<path fill="#C6D5DB" d="M50e-1 295e-1v-50e-1c0e-1-20e-1 18e-1-38e-1 40.5e-1-34.5e-1v9.5e-1C74e-1 220.5e-1 61e-1 233.5e-1 61e-1 250e-1v40e-1c0e-1 16.5e-1 13e-1 29.5e-1 29.5e-1 30e-1v9.5e-1C68e-1 333e-1 50e-1 315e-1 50e-1 295e-1zm0e-1-180e-1V65e-1c0e-1-20e-1 18e-1-38e-1 40.5e-1-34.5e-1V40e-1C74e-1 40.5e-1 61e-1 53.5e-1 61e-1 70e-1v40e-1c0e-1 16.5e-1 13e-1 29.5e-1 29.5e-1 30e-1v9.5e-1C68e-1 153e-1 50e-1 135e-1 50e-1 115e-1zm40.5e-1 214.5e-1c22.5e-1 3.5e-1 40e-1-14.5e-1 40e-1-34.5e-1v-50e-1c0e-1-20e-1-17.5e-1-38e-1-40e-1-34.5e-1V190e-1c32.95e-1.5e-1 59.5e-1 27.18e-1 59.5e-1 60e-1v40e-1c0e-1 32.82e-1-26.55e-1 59.5e-1-59.5e-1 60e-1v-20.5e-1zm0e-1-159.5e-1v-20.5e-1c22.5e-1 3.5e-1 40e-1-14.5e-1 40e-1-34.5e-1V65e-1c0e-1-20e-1-17.5e-1-38e-1-40e-1-34.5e-1V10e-1c32.95e-1.5e-1 59.5e-1 27.17e-1 59.5e-1 60e-1v40e-1c0e-1 32.82e-1-26.55e-1 59.5e-1-59.5e-1 60e-1zM230e-1 335e-1c0e-1-20e-1 18e-1-38e-1 40.5e-1-34.5e-1v9.5e-1c-16.5e-1.5e-1-29.5e-1 13.5e-1-29.5e-1 30e-1v20e-1h-11e-1v-25e-1zm0e-1-130e-1v-50e-1c0e-1-20e-1 18e-1-38e-1 40.5e-1-34.5e-1v9.5e-1c-16.5e-1.5e-1-29.5e-1 13.5e-1-29.5e-1 30e-1v40e-1c0e-1 16.5e-1 13e-1 29.5e-1 29.5e-1 30e-1v9.5e-1C248e-1 243e-1 230e-1 225e-1 230e-1 205e-1zm0e-1-180e-1V0e-1h11e-1v20e-1c0e-1 16.5e-1 13e-1 29.5e-1 29.5e-1 30e-1v9.5e-1C248e-1 63e-1 230e-1 45e-1 230e-1 25e-1zm40.5e-1 275.5e-1V280e-1c32.95e-1.5e-1 59.5e-1 27.18e-1 59.5e-1 60e-1v20e-1h-19.5e-1v-25e-1c0e-1-20e-1-17.5e-1-38e-1-40e-1-34.5e-1zm0e-1-40.5e-1v-20.5e-1c22.5e-1 3.5e-1 40e-1-14.5e-1 40e-1-34.5e-1v-50e-1c0e-1-20e-1-17.5e-1-38e-1-40e-1-34.5e-1V100e-1c32.95e-1.5e-1 59.5e-1 27.18e-1 59.5e-1 60e-1v40e-1c0e-1 32.82e-1-26.55e-1 59.5e-1-59.5e-1 60e-1zm0e-1-180e-1V59.5e-1c22.5e-1 3.5e-1 40e-1-14.5e-1 40e-1-34.5e-1V0e-1H330e-1v20e-1c0e-1 32.82e-1-26.55e-1 59.5e-1-59.5e-1 60e-1z"/>
	<path fill="#C6D5DB" d="M70e-1 300e-1 a20e-1 20e-1 0 0 1 40e-1 0e-1v60e-1H70e-1v-60e-1zm0e-1-60e-1V120e-1a20e-1 20e-1 0 0 1 40e-1 0e-1v120e-1a20e-1 20e-1 0 0 1-40e-1 0e-1zm0e-1-180e-1V0e-1h40e-1v60e-1a20e-1 20e-1 0 0 1-40e-1 0e-1zm180e-1 270e-1V210e-1a20e-1 20e-1 0 0 1 40e-1 0e-1v120e-1a20e-1 20e-1 0 0 1-40e-1 0e-1zm0e-1-180e-1V30e-1a20e-1 20e-1 0 0 1 40e-1 0e-1v120e-1a20e-1 20e-1 0 0 1-40e-1 0e-1z"/>
	<path fill="#EDF1F4" d="M70e-1 300e-1c0e-1-11e-1 9e-1-20e-1 20e-1-20e-1v80e-1H70e-1v-60e-1zm0e-1-60e-1V120e-1c0e-1-11e-1 9e-1-20e-1 20e-1-20e-1v160e-1c-11e-1 0e-1-20e-1-9e-1-20e-1-20e-1zm0e-1-180e-1V0e-1h20e-1v80e-1c-11e-1 0e-1-20e-1-9e-1-20e-1-20e-1zm180e-1 270e-1V210e-1c0e-1-11e-1 9e-1-20e-1 20e-1-20e-1v160e-1c-11e-1 0e-1-20e-1-9e-1-20e-1-20e-1zm0e-1-180e-1V30e-1c0e-1-11e-1 9e-1-20e-1 20e-1-20e-1v160e-1c-11e-1 0e-1-20e-1-9e-1-20e-1-20e-1z"/>
</svg>
