<svg xmlns="http://www.w3.org/2000/svg" viewBox="0 0 36 36">
	<marker id="dot" viewBox="0 0 10 10" refX="5" refY="5" markerWidth="1" markerHeight="1">
		<circle cx="5" cy="5" r="1" fill="white" stroke="black" stroke-width="0.3"/>
	</marker>
	<!-- 
branch-a:
stem=900, right=900, left=900
branch-b:
stem=900, left=700/900, right=700
branch-c:
stem=700, right=700, left=500
branch-d:
stem=700, left=500, right=700
branch-e:
stem=500, left=300/100, right=300
branch-f:
stem=300, right=300, left=100


todo: restore any lost `s` commands in paths

-->
	
	
	
	<style>
		:root {
		--green100: rgb(198, 229, 179);
		--green300: rgb(166, 211, 136);
		--green500: rgb(119, 178,  85);
		--green700: rgb( 92, 145,  59);
		--green900: rgb( 62, 114,  29);
		fill: currentColor;
		}
		
		.branch-a {
		color: var(--green900);
		}
		
		.branch-b {
		color: var(--green900);
		}
		.branch-b .right {
		color: var(--green700);
		}
		
		.branch-c {
		color: var(--green700);
		}
		.branch-c .left {
		color: var(--green500);
		}
		
		.branch-d {
		color: var(--green700);
		}
		.branch-d .left {
		color: var(--green500);
		}
		
		.branch-e {
		color: var(--green500);
		}
		.branch-e .left {
		color: var(--green100);
		}
		.branch-e .right {
		color: var(--green300);
		}
		
		.branch-f {
		color: var(--green300);
		}
		.branch-f .left {
		color: var(--green100);
		}
		
		.brown100 {fill: rgb(193, 105,  79)}
		.brown500 {fill: rgb(160,  78,  60)}
		.brown900 {fill: rgb(102,  33,  19)}
		
		* {

		}
		
		
		.test, .test * {
		fill:red !important;
		}
		.pot {
		}
	</style>
	<path class="pot brown100" d=" M 17.094 24.242 H 7.56 s 1.653 6.469 4.254 9.581 c 1.771 2.118 4.75 2.282 5.81 2.282 2.118 0 4.818 -.174 6.589 -2.294 3.087 -3.691 4.534 -9.569 4.534 -9.569 H 17.094 z "/>
	<g class="brown500">
		<!-- shadow below outer rim -->
		<path class="pot" d="M 27.628 27.666 C 28.086 26.486 28.399 25.482 28.575 24.871 C 28.476 24.654 28.328 24.444 28.143 24.242 L 8.164 24.242 C 7.979 24.444 7.831 24.653 7.732 24.870 C 7.906 25.478 8.211 26.478 8.624 27.623 C 10.159 28.987 13.347 30.081 18.153 30.081 C 22.907 30.081 26.075 29.009 27.628 27.666 Z"/>
		<!-- inner rim of pot -->
		<ellipse class="pot" cx="18" cy="19.716" rx="11.768" ry="2.716"/>
	</g>
	
	<!-- dirt -->
	<path class="pot brown900" d="M7.819 21.073c2.036.811 5.828 1.358 10.181 1.358s8.145-.547 10.181-1.358c-2.036-.811-5.828-1.358-10.181-1.358s-8.145.548-10.181 1.358z"/>
	
	<!-- BRANCH-A -->
	<g class="branch-a">
		<path class="stem" d="M 18.733 23.524 C 18.474 23.524 18.248 23.335 18.208 23.072 C 17.134 15.990 19.113 5.647 23.673 2.128 C 23.904 1.949 24.239 1.991 24.420 2.224 C 24.600 2.457 24.557 2.791 24.324 2.971 C 20.179 6.169 18.233 16.137 19.260 22.912 C 19.305 23.203 19.105 23.474 18.814 23.518 C 18.786 23.522 18.759 23.524 18.733 23.524 Z"/>
		<g class="right">
			<circle transform="matrix(2.5795,-0.3915 0.1105,0.7265 21.3245,15.3275)" r="1"/>
			<circle transform="matrix(2.7865,-0.423 0.1105,0.727 21.6265,17.035)" r="1"/>
			<ellipse transform="rotate(-8.632 21.821 18.732)" cx="21.824" cy="18.734" rx="3.083" ry=".735"/>
			<circle transform="matrix(2.344,-0.616 0.187,0.711 21.439,13.61)" r="1"/>
			<circle transform="matrix(2.0785,-0.6485 0.2195,0.7015 21.3515,11.8125)" r="1"/>
			<circle transform="matrix(1.8725,-0.729 0.2295,0.589 21.2505,10.148)" r="1"/>
			<circle transform="matrix(1.547,-0.602 0.205,0.527 21.727,8.537)" r="1"/>
			<circle transform="matrix(1.402,-0.2275 0.091,0.5585 22.234,6.9935)" r="1"/>
			<circle transform="matrix(1.5465,-0.2515 0.0945,0.5825 23.1645,5.6935)" r="1"/>
			<circle transform="matrix(1.4065,-0.2285 0.0845,0.5195 24.1765,4.2755)" r="1"/>
			<circle transform="matrix(1.182,-0.192 0.074,0.455 24.901,2.954)" r="1"/>
			<circle transform="matrix(1.032,-0.6085 0.234,0.3965 25.463,1.7425)" r="1"/>
		</g>
		<g class="left">
			<circle transform="matrix(0.345,-1.147 0.441,0.133 24.411,1.144)" r="1"/>
			<circle transform="matrix(2.609,0 0,0.735 15.879,15.491)" r="1"/>
			<circle transform="matrix(2.5965,0.2495 -0.0705,0.7315 15.5305,17.1985)" r="1"/>
			<circle transform="matrix(2.8815,0.277 -0.0705,0.732 15.2785,18.879)" r="1"/>
			<circle transform="matrix(2.298,0.1915 -0.061,0.7325 16.335,13.8595)" r="1"/>
			<circle transform="matrix(2.098,0.0935 -0.033,0.7345 16.913,12.3575)" r="1"/>
			<circle transform="matrix(1.735,0.335 -0.123,0.638 17.56,11.012)" r="1"/>
			<circle transform="matrix(1.6375,0.665 -0.2445,0.602 17.9265,9.54)" r="1"/>
			<circle transform="matrix(1.5205,1.0445 -0.3425,0.4985 18.1905,7.8905)" r="1"/>
			<circle transform="matrix(1.3255,0.9105 -0.3425,0.4985 19.1265,6.8785)" r="1"/>
			<circle transform="matrix(1.1525,1.1215 -0.4215,0.4335 19.6535,5.5465)" r="1"/>
			<circle transform="matrix(1.0615,1.0325 -0.4215,0.4335 20.4765,4.3545)" r="1"/>
			<circle transform="matrix(0.9675,0.941 -0.4145,0.426 21.3225,3.291)" r="1"/>
			<ellipse transform="rotate(-32.542 22.187 2.44)" cx="22.186" cy="2.439" rx=".595" ry="1.349"/>
			<circle transform="matrix(0.376,1.087 -0.473,0.164 23.18,1.624)" r="1"/>
		</g>
	</g>
	
	<!-- BRANCH B -->
	<g class="branch-b">
		<path class="stem" d="M 16.885 23.630 C 16.607 23.589 16.407 23.337 16.432 23.054 C 17.185 14.881 14.067 9.084 7.651 6.733 C 7.375 6.633 7.234 6.327 7.335 6.051 C 7.435 5.775 7.739 5.630 8.018 5.734 C 14.930 8.266 18.295 14.452 17.493 23.152 C 17.466 23.444 17.207 23.660 16.915 23.633 C 16.904 23.633 16.895 23.632 16.885 23.630 Z"/>
		<g class="left">
			<circle transform="matrix(-2.6085,-0.049 -0.0135,0.7355 14.0555,16.761)" r="1"/>
			<circle transform="matrix(-2.608,-0.048 -0.014,0.735 14.054,18.52)" r="1"/>
			<path class="bigleaf" d="M17.077 20.098 c -.008 .406, -1.181 .713, -2.622 .687 c -1.44 -.027, -2.912 -.478, -2.904 -.884 c .008 -.406, 1.491 -.613, 2.932 -.586 s 2.601 .378 2.594 .783 z "/>
			<circle transform="matrix(-2.402,-0.3235 -0.098,0.7285 14.097,15.1935)" r="1"/>
			<circle transform="matrix(-2.158,-0.2905 -0.098,0.7285 13.597,13.4575)" r="1"/>
			<circle transform="matrix(-2.009,0.022 0.007,0.632 13.305,12.122)" r="1"/>
			<circle transform="matrix(-1.6595,0.0185 0.0065,0.5655 12.2625,10.8055)" r="1"/>
			<circle transform="matrix(-1.386,0.3115 0.124,0.5515 11.215,9.5615)" r="1"/>
			<circle transform="matrix(-1.5285,0.3435 0.1295,0.5755 9.8685,8.7025)" r="1"/>
			<circle transform="matrix(-1.39,0.3125 0.115,0.5135 8.4,7.7645)" r="1"/>
			<circle transform="matrix(-1.1685,0.2625 0.101,0.4495 7.2345,6.8075)" r="1"/>
			<circle transform="matrix(-1.184,-0.1805 -0.07,0.4555 6.262,5.8925)" r="1"/>
		</g>
		<g class="right">
			<circle transform="matrix(-0.7475,-0.9355 -0.36,0.2875 7.0145,4.9465)" r="1"/>
			<circle transform="matrix(-2.575,0.415 0.117,0.726 19.367,16.024)" r="1"/>
			<path class="bigleaf" d="M 22.826 16.888 C 22.891 17.289 21.348 18.087 19.925 18.317 C 18.503 18.546 17.297 18.407 17.232 18.006 C 17.167 17.605 18.268 17.094 19.690 16.865 C 21.114 16.636 22.761 16.487 22.826 16.888 Z"/>
			<path class="bigleaf" d="M 23.379 18.567 C 23.444 18.968 21.502 19.868 20.080 20.097 C 18.658 20.326 17.452 20.187 17.388 19.786 C 17.323 19.385 18.424 18.874 19.846 18.645 C 21.268 18.416 23.314 18.166 23.379 18.567 Z"/>
			<circle transform="matrix(-2.195,0.705 0.225,0.7 18.599,14.403)" r="1"/>
			<circle transform="matrix(-1.999,0.6425 0.225,0.6995 17.996,12.9245)" r="1"/>
			<circle transform="matrix(-1.485,0.9575 0.352,0.5465 17.051,11.5475)" r="1"/>
			<circle transform="matrix(-1.2715,1.2275 0.4515,0.4675 16.1625,10.3185)" r="1"/>
			<circle transform="matrix(-1.021,1.536 0.504,0.335 15.303,8.886)" r="1"/>
			<circle transform="matrix(-0.8905,1.339 0.5035,0.335 14.0565,8.296)" r="1"/>
			<circle transform="matrix(-0.6515,1.47 0.5525,0.245 13.0705,7.257)" r="1"/>
			<circle transform="matrix(-0.6,1.354 0.553,0.245 11.863,6.458)" r="1"/>
			<circle transform="matrix(-0.5465,1.234 0.5435,0.241 10.6815,5.786)" r="1"/>
			<circle transform="matrix(-0.2495,1.326 0.5845,0.11 9.5625,5.318)" r="1"/>
			<circle transform="matrix(0.0565,1.1485 0.4995,-0.0245 8.3365,4.9325)" r="1"/>
		</g>
	</g>
	
	<!-- BRANCH C -->
	<g class="branch-c">
		<path class="stem" d="M 18.876 25.089 C 18.853 25.089 18.829 25.088 18.805 25.084 C 18.513 25.045 18.309 24.777 18.348 24.486 C 19.829 13.450 26.630 8.516 30.569 7.998 C 30.856 7.960 31.128 8.164 31.166 8.456 C 31.205 8.748 31.000 9.015 30.708 9.053 C 27.081 9.530 20.805 14.180 19.403 24.627 C 19.367 24.895 19.139 25.089 18.876 25.089 Z"/>
		<g class="right">
			<circle transform="matrix(2.6005,0.206 -0.0585,0.733 23.4895,18.4)" r="1"/>
			<ellipse transform="rotate(-2.063 23.613 16.845)" cx="23.601" cy="16.836" rx="2.423" ry=".735"/>
			<circle transform="matrix(2.1755,-0.0785 0.0265,0.7345 24.2685,15.1575)" r="1"/>
			<circle transform="matrix(1.9975,0.2185 -0.0685,0.6285 24.6905,13.8565)" r="1"/>
			<circle transform="matrix(1.6495,0.18 -0.0615,0.562 25.8545,12.647)" r="1"/>
			<circle transform="matrix(1.349,0.445 -0.177,0.537 27.019,11.512)" r="1"/>
			<circle transform="matrix(1.488,0.4915 -0.185,0.5605 28.444,10.7895)" r="1"/>
			<circle transform="matrix(1.353,0.4465 -0.165,0.4995 29.996,9.9985)" r="1"/>
			<circle transform="matrix(1.1375,0.3755 -0.1445,0.4375 31.2495,9.1605)" r="1"/>
			<circle transform="matrix(1.1965,-0.064 0.0245,0.46 32.3075,8.344)" r="1"/>
		</g>
		<g class="left">
			<circle transform="matrix(0.836,-0.8585 0.33,0.3215 31.651,7.3285)" r="1"/>
			<circle transform="matrix(2.5225,0.6645 -0.1875,0.7105 18.2755,17.1475)" r="1"/>
			<circle transform="matrix(2.116,0.9165 -0.292,0.6745 19.198,15.6105)" r="1"/>
			<circle transform="matrix(1.927,0.8345 -0.292,0.6745 19.943,14.1965)" r="1"/>
			<circle transform="matrix(1.3845,1.098 -0.4035,0.509 21.0175,12.919)" r="1"/>
			<circle transform="matrix(1.145,1.3455 -0.495,0.4215 22.021,11.7825)" r="1"/>
			<circle transform="matrix(0.866,1.628 -0.534,0.284 23.017,10.44)" r="1"/>
			<circle transform="matrix(0.755,1.42 -0.534,0.284 24.315,9.976)" r="1"/>
			<circle transform="matrix(0.505,1.527 -0.574,0.19 25.398,9.037)" r="1"/>
			<circle transform="matrix(0.465,1.406 -0.574,0.19 26.678,8.36)" r="1"/>
			<circle transform="matrix(0.4235,1.2815 -0.5645,0.1865 27.9185,7.8065)" r="1"/>
			<circle transform="matrix(0.1185,1.3445 -0.5925,0.0525 29.0785,7.4505)" r="1"/>
			<circle transform="matrix(-0.168,1.138 -0.495,-0.073 30.337,7.186)" r="1"/>
		</g>
	</g>
	
	<!-- BRANCH D -->
	<g class="branch-d">
		<path class="stem" d="M 16.947 23.468 C 16.720 23.452 16.520 23.291 16.466 23.058 C 16.395 22.754 14.609 15.629 3.753 15.316 C 3.487 15.328 3.228 15.064 3.236 14.769 C 3.244 14.475 3.489 14.244 3.783 14.252 C 15.479 14.582 17.485 22.737 17.503 22.820 C 17.568 23.106 17.389 23.390 17.104 23.456 C 17.050 23.468 16.998 23.472 16.947 23.468 Z"/>
		<g class="left">
			<circle transform="matrix(-2.4165,0.982 0.2765,0.681 13.7795,22.191)" r="1"/>
			<circle transform="matrix(-2.3355,0.648 0.1965,0.708 13.2005,20.733)" r="1"/>
			<circle transform="matrix(-2.0985,0.5825 0.197,0.7085 12.0575,19.3345)" r="1"/>
			<circle transform="matrix(-1.8385,0.811 0.2555,0.578 11.2625,18.221)" r="1"/>
			<circle transform="matrix(-1.5185,0.6695 0.2285,0.5175 9.7875,17.4205)" r="1"/>
			<circle transform="matrix(-1.1515,0.8315 0.3315,0.4585 8.3345,16.6895)" r="1"/>
			<circle transform="matrix(-1.2705,0.9175 0.3455,0.4785 6.7575,16.4305)" r="1"/>
			<circle transform="matrix(-1.155,0.8345 0.308,0.4265 5.039,16.1455)" r="1"/>
			<circle transform="matrix(-0.971,0.7015 0.27,0.3735 3.591,15.7255)" r="1"/>
			<circle transform="matrix(-1.1595,0.3 0.1155,0.446 2.3365,15.266)" r="1"/>
		</g>
		<g class="right">
			<circle transform="matrix(-1.0555,-0.566 -0.2175,0.406 2.6565,14.1)" r="1"/>
			<circle transform="matrix(-2.204,1.395 0.393,0.621 18.372,19.422)" r="1"/>
			<circle transform="matrix(-1.7405,1.5125 0.4825,0.5545 17.0275,18.2355)" r="1"/>
			<circle transform="matrix(-1.585,1.3775 0.482,0.5545 15.891,17.1125)" r="1"/>
			<circle transform="matrix(-0.9885,1.4645 0.5385,0.3635 14.4805,16.2185)" r="1"/>
			<circle transform="matrix(-0.686,1.6285 0.599,0.2525 13.18,15.4385)" r="1"/>
			<circle transform="matrix(-0.334,1.8135 0.595,0.1095 11.827,14.4595)" r="1"/>
			<circle transform="matrix(-0.2915,1.5815 0.5945,0.1095 10.4485,14.4085)" r="1"/>
			<circle transform="matrix(-0.02,1.6075 0.605,0.0075 9.133,13.8405)" r="1"/>
			<circle transform="matrix(-0.0185,1.481 0.6045,0.008 7.7085,13.582)" r="1"/>
			<circle transform="matrix(-0.017,1.3495 0.595,0.0075 6.358,13.4285)" r="1"/>
			<circle transform="matrix(0.2925,1.317 0.5805,-0.129 5.1445,13.439)" r="1"/>
			<circle transform="matrix(0.504,1.034 0.45,-0.219 3.866,13.567)" r="1"/>
		</g>
	</g>
	
	<!-- BRANCH E -->
	<g class="branch-e">
		<path class="stem" d="
M 18.447,24.397
H 18.423
C 18.129,24.383 17.902,24.135 17.915,23.841
C 17.966,22.681 17.863,16.776 10.792,14.538
C 10.512,14.450 10.356,14.150 10.445,13.870
C 10.534,13.591 10.832,13.433 11.113,13.523
C 18.925,15.996 19.035,22.591 18.978,23.888
C 18.966,24.174 18.730,24.397 18.447,24.397
Z
"/>
		<g class="left">
			<circle class="" transform="matrix(-2.399,-0.342 -0.104,0.728 16.042,23.117)" r="1"/>
			<circle transform="matrix(-2.1555,-0.307 -0.1035,0.728 16.2185,21.662)" r="1"/>
			<circle transform="matrix(-2.0095,0.0065 0.0025,0.6325 15.6835,20.1025)" r="1"/>
			<circle transform="matrix(-1.6595,0.0055 0.0015,0.5655 15.2535,18.8725)" r="1"/>
			<circle transform="matrix(-1.3885,0.3005 0.1195,0.5525 14.2145,17.6205)" r="1"/>
			<circle transform="matrix(-1.531,0.332 0.125,0.577 12.875,16.752)" r="1"/>
			<circle transform="matrix(-1.3925,0.3015 0.1115,0.5145 11.9195,15.7385)" r="1"/>
			<circle transform="matrix(-1.1705,0.254 0.0975,0.45 10.4455,14.9)" r="1"/>
			<circle transform="matrix(-1.183,-0.1895 -0.073,0.4545 9.29,13.9135)" r="1"/>
		</g>
		<g class="right">
			<circle transform="matrix(-0.741,-0.9415 -0.362,0.2845 10.05,12.9735)" r="1"/>
			<circle transform="matrix(-2.2005,0.6885 0.2195,0.7015 20.9285,22.6465)" r="1"/>
			<circle transform="matrix(-2.0045,0.6265 0.2195,0.702 20.4315,21.2255)" r="1"/>
			<circle transform="matrix(-1.492,0.946 0.3475,0.549 19.846,19.652)" r="1"/>
			<circle transform="matrix(-1.281,1.217 0.448,0.471 19.156,18.416)" r="1"/>
			<circle transform="matrix(-1.033,1.528 0.501,0.339 18.308,16.977)" r="1"/>
			<circle transform="matrix(-0.9005,1.332 0.5015,0.339 17.0665,16.377)" r="1"/>
			<circle transform="matrix(-0.663,1.465 0.551,0.249 16.088,15.33)" r="1"/>
			<circle transform="matrix(-0.6105,1.3495 0.5515,0.2495 14.8865,14.5225)" r="1"/>
			<circle transform="matrix(-0.556,1.2295 0.542,0.2455 13.711,13.8415)" r="1"/>
			<circle transform="matrix(-0.2595,1.3245 0.5835,0.1145 12.5955,13.3645)" r="1"/>
			<circle transform="matrix(0.0475,1.1495 0.5005,-0.0205 11.3725,12.9695)" r="1"/>
		</g>
	</g>
		
	<!-- BRANCH F -->
	<g class="branch-f">
		<path class="stem" d="M 20.204 24.140 L 20.162 24.139 C 19.869 24.116 19.649 23.860 19.671 23.567 C 19.893 20.629 22.502 15.787 28.555 15.298 C 28.842 15.277 29.105 15.493 29.128 15.786 C 29.152 16.079 28.934 16.335 28.640 16.359 C 22.599 16.846 20.864 21.912 20.733 23.648 C 20.712 23.927 20.480 24.140 20.204 24.140 Z"/>
		<g class="right">
			<circle transform="matrix(2.1765,0.046 -0.015,0.735 22.1355,22.528)" r="1"/>
			<circle transform="matrix(1.982,0.3315 -0.104,0.6235 22.917,21.0745)" r="1"/>
			<circle transform="matrix(1.637,0.274 -0.093,0.558 23.541,19.931)" r="1"/>
			<circle transform="matrix(1.3215,0.5215 -0.2075,0.5265 24.7675,18.8635)" r="1"/>
			<circle transform="matrix(1.4575,0.575 -0.2165,0.549 26.0725,18.002)" r="1"/>
			<circle transform="matrix(1.325,0.523 -0.193,0.489 27.337,17.378)" r="1"/>
			<circle transform="matrix(1.114,0.4395 -0.169,0.4285 28.928,16.7885)" r="1"/>
		</g>
		<g class="left">
			<circle transform="matrix(1.1975,0.0045 -0.0015,0.4605 30.2275,16.0025)" r="1"/>
			<circle transform="matrix(0.883,-0.8095 0.311,0.3395 29.63,14.9515)" r="1"/>
			<circle transform="matrix(1.876,0.943 -0.33,0.657 18.366,21.573)" r="1"/>
			<circle transform="matrix(1.3195,1.175 -0.4325,0.4855 19.1985,20.336)" r="1"/>
			<circle transform="matrix(1.067,1.4085 -0.518,0.3925 19.763,18.8485)" r="1"/>
			<circle transform="matrix(0.772,1.675 -0.549,0.253 20.833,17.566)" r="1"/>
			<circle transform="matrix(0.673,1.4605 -0.549,0.253 22.155,17.1755)" r="1"/>
			<circle transform="matrix(0.417,1.553 -0.584,0.157 23.29,16.3)" r="1"/>p
			<circle transform="matrix(0.384,1.4305 -0.584,0.1565 24.606,15.6985)" r="1"/>
			<circle transform="matrix(0.3495,1.303 -0.5745,0.154 25.8765,15.215)" r="1"/>
			<circle transform="matrix(0.0415,1.3485 -0.594,0.0185 27.0545,14.9255)" r="1"/>
			<circle transform="matrix(-0.233,1.1265 -0.49,-0.1015 28.326,14.7345)" r="1"/>
		</g>
	</g>
		
	<!-- outer rim of pot -->
	<path class="pot brown100" d="M 18.000 22.431 C 11.501 22.431 6.232 21.215 6.232 19.715 L 6.232 23.746 C 6.232 25.845 11.565 27.546 18.000 27.546 C 24.436 27.546 29.768 25.844 29.768 23.746 L 29.768 19.715 C 29.768 21.216 24.499 22.431 18.000 22.431 Z"/>
</svg>
